<?xml version="1.0" standalone="no"?>
<!DOCTYPE svg PUBLIC "-//W3C//DTD SVG 20010904//EN"
 "http://www.w3.org/TR/2001/REC-SVG-20010904/DTD/svg10.dtd">
<svg version="1.0" xmlns="http://www.w3.org/2000/svg"
 width="700.000000pt" height="700.000000pt" viewBox="0 0 700.000000 700.000000"
 preserveAspectRatio="xMidYMid meet">
<metadata>
Created by potrace 1.14, written by Peter Selinger 2001-2017
</metadata>
<g transform="translate(0.000000,700.000000) scale(0.100000,-0.100000)"
fill="#000000" stroke="none">
<path d="M1820 6993 c-348 -60 -640 -381 -870 -958 -68 -171 -167 -466 -195
-585 -2 -8 -17 -69 -35 -135 -34 -129 -117 -497 -126 -555 -3 -19 -7 -43 -10
-52 -3 -10 -7 -30 -10 -45 -3 -16 -16 -89 -30 -163 -14 -74 -27 -151 -30 -170
-3 -19 -7 -46 -10 -60 -8 -43 -11 -64 -18 -111 -4 -25 -9 -57 -11 -70 -8 -44
-34 -213 -40 -259 -3 -25 -10 -72 -15 -105 -5 -33 -12 -80 -15 -105 -3 -25 -8
-56 -10 -70 -3 -14 -7 -50 -10 -80 -3 -30 -7 -66 -10 -80 -8 -43 -14 -83 -21
-145 -3 -33 -8 -69 -10 -80 -2 -11 -6 -42 -9 -70 -3 -27 -10 -81 -15 -120 -5
-38 -11 -90 -14 -115 -3 -25 -10 -85 -16 -135 -6 -49 -13 -103 -15 -120 -7
-67 -17 -151 -20 -175 -14 -105 -25 -185 -30 -230 -4 -39 -25 -184 -29 -207
-5 -24 -12 -67 -22 -138 -3 -27 -8 -59 -10 -70 -2 -11 -7 -40 -10 -65 -3 -25
-8 -52 -9 -61 -2 -9 -6 -40 -10 -70 -4 -30 -8 -56 -10 -59 -2 -3 -7 -33 -10
-65 -4 -33 -9 -67 -10 -75 -2 -9 -6 -43 -10 -75 -3 -33 -8 -73 -10 -90 -2 -16
-7 -61 -10 -100 -3 -38 -8 -81 -10 -95 -3 -14 -7 -54 -10 -90 -3 -36 -8 -81
-10 -100 -2 -19 -9 -89 -15 -155 -6 -66 -13 -142 -16 -170 -10 -93 -13 -420
-4 -459 13 -61 27 -67 61 -27 33 40 79 161 120 318 28 109 33 131 44 191 3 15
14 70 25 122 11 52 22 113 25 135 4 22 27 141 51 265 25 124 48 235 50 247 2
13 6 35 9 50 3 16 8 44 11 63 3 19 9 53 14 75 5 22 16 83 24 135 9 52 18 106
20 120 8 39 64 400 71 450 3 25 8 56 10 70 13 94 19 139 30 240 3 30 8 62 10
70 2 8 7 40 10 70 3 30 8 66 10 80 2 14 7 48 10 75 3 28 8 57 10 65 2 8 6 38
10 65 3 28 10 75 15 105 5 30 12 73 15 95 6 43 23 153 30 198 3 15 7 42 10 60
7 42 54 305 60 337 2 14 7 36 10 50 2 14 7 41 10 60 19 116 110 560 141 690 9
36 18 76 20 89 11 58 78 340 115 486 41 159 45 177 53 215 3 11 28 97 56 191
174 586 348 882 541 925 59 13 102 14 138 4 83 -22 174 -165 256 -400 31 -90
89 -291 100 -348 1 -9 8 -37 15 -62 7 -25 13 -52 15 -60 34 -169 75 -384 79
-415 4 -22 8 -47 11 -55 2 -8 6 -37 10 -65 3 -27 8 -57 10 -65 2 -8 16 -96 30
-195 36 -256 36 -255 50 -385 3 -30 8 -66 10 -80 2 -14 7 -50 10 -80 4 -30 8
-68 10 -85 2 -16 6 -57 10 -90 4 -33 8 -71 10 -85 2 -14 7 -54 10 -90 3 -36 8
-76 10 -90 3 -14 7 -45 10 -70 6 -50 14 -112 20 -150 2 -14 7 -43 9 -65 8 -60
25 -177 30 -201 2 -12 7 -37 10 -55 3 -19 8 -45 11 -59 3 -14 8 -41 11 -60 11
-73 66 -289 100 -395 45 -139 138 -330 205 -418 126 -167 306 -260 511 -266
317 -8 510 256 668 914 26 109 90 428 104 515 3 19 12 71 20 115 9 44 18 96
21 115 3 19 8 42 10 50 2 8 7 31 10 50 3 19 19 94 35 165 177 791 426 1234
712 1272 196 26 331 -286 428 -992 6 -44 13 -91 15 -105 2 -14 6 -45 9 -70 3
-25 12 -99 21 -165 8 -66 17 -147 21 -180 3 -33 8 -67 9 -75 2 -8 6 -44 9 -80
4 -36 9 -76 11 -90 7 -37 13 -79 20 -130 7 -56 11 -75 44 -235 104 -497 310
-811 631 -962 118 -56 186 -76 330 -98 91 -15 412 -15 443 -1 15 7 17 29 17
237 0 199 -2 228 -15 223 -8 -4 -15 -10 -15 -14 0 -10 -108 -66 -145 -74 -33
-8 -157 -9 -195 -1 -14 3 -36 7 -50 10 -36 7 -141 61 -172 89 -43 39 -97 114
-127 180 -43 91 -91 269 -106 391 -4 28 -8 57 -10 65 -2 8 -7 35 -10 60 -3 25
-8 61 -10 80 -3 19 -7 60 -10 90 -3 30 -8 71 -10 90 -2 19 -7 60 -10 90 -3 30
-8 71 -10 90 -2 19 -7 58 -10 85 -13 128 -25 242 -30 280 -2 17 -6 59 -10 95
-6 60 -9 81 -20 150 -2 14 -9 61 -15 106 -6 44 -13 91 -15 105 -3 13 -8 44
-11 68 -3 25 -7 48 -9 52 -3 4 -7 24 -11 45 -20 134 -97 386 -156 512 -37 79
-124 212 -170 263 -141 152 -333 236 -551 241 -158 4 -239 -13 -355 -71 -200
-101 -365 -312 -510 -651 -129 -300 -220 -636 -407 -1495 -13 -60 -34 -150
-45 -200 -12 -49 -23 -98 -25 -107 -37 -169 -169 -579 -212 -660 -20 -37 -31
-47 -57 -51 -46 -7 -79 22 -110 95 -35 86 -84 296 -102 438 -2 19 -8 60 -14
90 -5 30 -11 75 -14 100 -3 25 -10 86 -16 135 -11 88 -14 119 -26 220 -3 28
-7 61 -9 75 -2 14 -7 54 -10 90 -6 60 -9 93 -20 175 -2 17 -6 55 -10 85 -3 30
-11 91 -16 135 -6 44 -12 97 -14 117 -2 21 -6 50 -9 65 -3 15 -8 53 -11 83 -3
30 -8 69 -10 85 -5 36 -12 82 -20 150 -4 28 -8 61 -11 75 -2 14 -6 45 -10 70
-3 25 -7 56 -9 69 -2 13 -7 45 -10 70 -4 25 -10 69 -15 96 -5 28 -12 68 -15
90 -3 22 -13 81 -21 130 -9 50 -17 101 -19 115 -2 14 -20 104 -40 200 -20 96
-38 186 -41 200 -3 14 -21 86 -40 160 -173 659 -407 1020 -727 1122 -60 19
-235 31 -297 21z"/>
</g>
</svg>
